# xmcd
#
# Track frame offsets: 
#        150
#        14450
#        33225
#        51150
#        63867
#        77270
#        87482
#        98525
#        110412
#        122107
#        137132
#        151507
#        163025
#        177085
#        193992
#        210087
#
# Disc length: 2957 seconds
#
# Revision: 5
# Processed by: cddbd v1.5.2PL0 Copyright (c) Steve Scherf et al.
# Submitted via: ExactAudioCopyFreeDBPlugin 1.0
#
DISCID=c00b8b10
DTITLE=Various Artist - Sweet Soul Music
DYEAR=1992
DGENRE=Soul
TTITLE0=The Three Degrees - Love Really Hurts Without You
TTITLE1=Solomon Burke - You Made A Believer Out Of Me
TTITLE2=Eddy Floyd - Will Love You (Like A,B,C)
TTITLE3=King Curtis - Black Skinned Blue-Eyed Boy
TTITLE4=Claudia Berry - Soul Man
TTITLE5=Solomon Burke - In The Midnight Hour
TTITLE6=Motor City All STars - Respect
TTITLE7=The Commodores - Everybody Loves To Cha Cha
TTITLE8=Martha Reeves - I Just Can't Take It
TTITLE9=Glady Knight - Warm And Tender Love
TTITLE10=Percy Sledge - What A Wonderful World
TTITLE11=Brook Benton - Walking The Dog
TTITLE12=Ike and Tina Turner - Lean On Me
TTITLE13=Jimmy Ruffin - Kiss You All Over
TTITLE14=Gloria Gaynor - Drift Away
TTITLE15=Soul Brothers - Only You
EXTD=YEAR: 1992
EXTT0=Billy Ocean\n
EXTT1=Edwin Start\n
EXTT2=The Soulfull dynamics\n
EXTT3=The Equals\n
EXTT4=Sam and Dave\n
EXTT5=Martha Reeves\n
EXTT6=Aretha Franklin\n
EXTT7=Sam Cooke\n
EXTT8=Joe Tex\n
EXTT9=Percy Sledge\n
EXTT10=Gloria Gaynor\n
EXTT11=Rufus Thomas\n
EXTT12=Ike and Tina Turner\n
EXTT13=Sharon McNight\n
EXTT14=Dobie Gray\n
EXTT15=The Platters\n
PLAYORDER=
